<svg width="160" height="90" viewBox="0 0 160 90" fill="none" xmlns="http://www.w3.org/2000/svg">
<rect width="160" height="90" fill="#525252"/>
<path d="M88 38H72V52L81.292 42.706C81.3849 42.613 81.4952 42.5393 81.6166 42.4889C81.738 42.4386 81.8681 42.4127 81.9995 42.4127C82.1309 42.4127 82.261 42.4386 82.3824 42.4889C82.5038 42.5393 82.6141 42.613 82.707 42.706L88 48.01V38ZM70 36.993C70.0018 36.7304 70.1069 36.479 70.2925 36.2932C70.4781 36.1074 70.7294 36.0021 70.992 36H89.008C89.556 36 90 36.445 90 36.993V53.007C89.9982 53.2696 89.8931 53.521 89.7075 53.7068C89.5219 53.8926 89.2706 53.9979 89.008 54H70.992C70.7288 53.9997 70.4765 53.895 70.2905 53.7088C70.1045 53.5226 70 53.2702 70 53.007V36.993ZM76 44C75.4696 44 74.9609 43.7893 74.5858 43.4142C74.2107 43.0391 74 42.5304 74 42C74 41.4696 74.2107 40.9609 74.5858 40.5858C74.9609 40.2107 75.4696 40 76 40C76.5304 40 77.0391 40.2107 77.4142 40.5858C77.7893 40.9609 78 41.4696 78 42C78 42.5304 77.7893 43.0391 77.4142 43.4142C77.0391 43.7893 76.5304 44 76 44Z" fill="#D4D4D4"/>
</svg>
